<mxfile host="Electron" modified="2023-12-05T02:14:14.148Z" agent="Mozilla/5.0 (Macintosh; Intel Mac OS X 10_15_7) AppleWebKit/537.36 (KHTML, like Gecko) draw.io/22.1.2 Chrome/114.0.5735.289 Electron/25.9.4 Safari/537.36" etag="COX24WF9ZMmC9LAXs5HK" version="22.1.2" type="device">
  <diagram name="PÃ¡gina-1" id="icJsvRTC8C5IM1xPVuLJ">
    <mxGraphModel dx="1634" dy="654" grid="1" gridSize="10" guides="1" tooltips="1" connect="1" arrows="1" fold="1" page="1" pageScale="1" pageWidth="100" pageHeight="100" math="0" shadow="0">
      <root>
        <mxCell id="0" />
        <mxCell id="1" parent="0" />
        <mxCell id="xmOoHfpwKu1GFw88GIAx-1" value="AWS Cloud" style="points=[[0,0],[0.25,0],[0.5,0],[0.75,0],[1,0],[1,0.25],[1,0.5],[1,0.75],[1,1],[0.75,1],[0.5,1],[0.25,1],[0,1],[0,0.75],[0,0.5],[0,0.25]];outlineConnect=0;gradientColor=none;html=1;whiteSpace=wrap;fontSize=11;fontStyle=0;container=1;pointerEvents=0;collapsible=0;recursiveResize=0;shape=mxgraph.aws4.group;grIcon=mxgraph.aws4.group_aws_cloud;strokeColor=#232F3E;fillColor=none;verticalAlign=top;align=left;spacingLeft=30;fontColor=#232F3E;dashed=0;" parent="1" vertex="1">
          <mxGeometry x="-110" y="260" width="640" height="420" as="geometry" />
        </mxCell>
        <mxCell id="f330gv2_tpIeTtg-5tDx-1" value="AWS System Manager&amp;nbsp;&lt;br&gt;Parameter Store&lt;br style=&quot;border-color: var(--border-color);&quot;&gt;&lt;ul style=&quot;border-color: var(--border-color);&quot;&gt;&lt;/ul&gt;" style="sketch=0;outlineConnect=0;fontColor=#232F3E;gradientColor=none;fillColor=#E7157B;strokeColor=none;dashed=0;verticalLabelPosition=top;verticalAlign=bottom;align=center;html=1;fontSize=12;fontStyle=0;aspect=fixed;pointerEvents=1;shape=mxgraph.aws4.parameter_store;labelPosition=center;" parent="xmOoHfpwKu1GFw88GIAx-1" vertex="1">
          <mxGeometry x="430" y="160" width="57.7" height="60" as="geometry" />
        </mxCell>
        <mxCell id="f330gv2_tpIeTtg-5tDx-3" value="&lt;ul style=&quot;border-color: var(--border-color); color: rgb(35, 47, 62); text-align: left;&quot;&gt;&lt;li&gt;&lt;span style=&quot;background-color: initial;&quot;&gt;pool-id&lt;/span&gt;&lt;/li&gt;&lt;li&gt;&lt;span style=&quot;background-color: initial;&quot;&gt;custom-domain&lt;/span&gt;&lt;/li&gt;&lt;/ul&gt;" style="text;html=1;align=center;verticalAlign=middle;resizable=0;points=[];autosize=1;strokeColor=none;fillColor=none;fontStyle=1" parent="xmOoHfpwKu1GFw88GIAx-1" vertex="1">
          <mxGeometry x="395" y="225" width="150" height="70" as="geometry" />
        </mxCell>
        <mxCell id="xmOoHfpwKu1GFw88GIAx-2" value="Region" style="points=[[0,0],[0.25,0],[0.5,0],[0.75,0],[1,0],[1,0.25],[1,0.5],[1,0.75],[1,1],[0.75,1],[0.5,1],[0.25,1],[0,1],[0,0.75],[0,0.5],[0,0.25]];outlineConnect=0;gradientColor=none;html=1;whiteSpace=wrap;fontSize=11;fontStyle=0;container=0;pointerEvents=0;collapsible=0;recursiveResize=0;shape=mxgraph.aws4.group;grIcon=mxgraph.aws4.group_region;strokeColor=#00A4A6;fillColor=none;verticalAlign=top;align=left;spacingLeft=30;fontColor=#147EBA;dashed=1;strokeWidth=3;" parent="xmOoHfpwKu1GFw88GIAx-1" vertex="1">
          <mxGeometry x="50" y="60" width="530" height="280" as="geometry" />
        </mxCell>
        <mxCell id="Mne-jVhyWLvrusMzvhz0-37" value="" style="group" vertex="1" connectable="0" parent="xmOoHfpwKu1GFw88GIAx-1">
          <mxGeometry x="90" y="110" width="290" height="180" as="geometry" />
        </mxCell>
        <mxCell id="Mne-jVhyWLvrusMzvhz0-35" value="Amazon Cognito" style="fillColor=none;strokeColor=#f20202;verticalAlign=top;fontStyle=0;fontColor=#CC0000;whiteSpace=wrap;html=1;align=left;spacingLeft=42;" vertex="1" parent="Mne-jVhyWLvrusMzvhz0-37">
          <mxGeometry width="290" height="180" as="geometry" />
        </mxCell>
        <mxCell id="Mne-jVhyWLvrusMzvhz0-36" value="" style="sketch=0;points=[[0,0,0],[0.25,0,0],[0.5,0,0],[0.75,0,0],[1,0,0],[0,1,0],[0.25,1,0],[0.5,1,0],[0.75,1,0],[1,1,0],[0,0.25,0],[0,0.5,0],[0,0.75,0],[1,0.25,0],[1,0.5,0],[1,0.75,0]];outlineConnect=0;fontColor=#232F3E;fillColor=#DD344C;strokeColor=#ffffff;dashed=0;verticalLabelPosition=bottom;verticalAlign=top;align=center;html=1;fontSize=12;fontStyle=0;aspect=fixed;shape=mxgraph.aws4.resourceIcon;resIcon=mxgraph.aws4.cognito;" vertex="1" parent="Mne-jVhyWLvrusMzvhz0-37">
          <mxGeometry width="27.692307692307693" height="27.692307692307693" as="geometry" />
        </mxCell>
        <mxCell id="Mne-jVhyWLvrusMzvhz0-43" style="edgeStyle=orthogonalEdgeStyle;rounded=0;orthogonalLoop=1;jettySize=auto;html=1;" edge="1" parent="Mne-jVhyWLvrusMzvhz0-37" source="Mne-jVhyWLvrusMzvhz0-38" target="Mne-jVhyWLvrusMzvhz0-41">
          <mxGeometry relative="1" as="geometry" />
        </mxCell>
        <mxCell id="Mne-jVhyWLvrusMzvhz0-38" value="User Pool&lt;br&gt;" style="sketch=0;outlineConnect=0;fontColor=#232F3E;gradientColor=none;fillColor=#DD344C;strokeColor=none;dashed=0;verticalLabelPosition=bottom;verticalAlign=top;align=center;html=1;fontSize=12;fontStyle=0;aspect=fixed;pointerEvents=1;shape=mxgraph.aws4.organizations_organizational_unit;" vertex="1" parent="Mne-jVhyWLvrusMzvhz0-37">
          <mxGeometry x="20" y="41.53846153846154" width="32.24076923076923" height="27.692307692307693" as="geometry" />
        </mxCell>
        <mxCell id="Mne-jVhyWLvrusMzvhz0-41" value="default user&lt;br&gt;cognito domain" style="rounded=1;whiteSpace=wrap;html=1;" vertex="1" parent="Mne-jVhyWLvrusMzvhz0-37">
          <mxGeometry x="120" y="34.61538461538461" width="120" height="41.53846153846154" as="geometry" />
        </mxCell>
      </root>
    </mxGraphModel>
  </diagram>
</mxfile>
